<svg xmlns="http://www.w3.org/2000/svg" viewBox="110 0 80 80">
  <path fill="#2C2F33" d="M110 0h80v80h-80z"/>
  <path fill="#EF222B" d="M190 80V59.996L169.996 80"/>
  <g fill="#FFF">
    <path d="M183.98 70.72c-1.934 0-3.5 1.568-3.5 3.5v.11c0 .182.146.33.327.33s.328-.148.328-.33v-.11c0-1.57 1.273-2.843 2.844-2.843 1.57 0 2.843 1.273 2.843 2.844 0 1.57-1.272 2.843-2.84 2.844h-.107c-.18 0-.328.147-.328.328 0 .18.147.328.328.328h.11c1.93-.004 3.493-1.57 3.493-3.5 0-1.932-1.568-3.5-3.5-3.5z"/>
    <path d="M185.526 75.768l.077-.077c.128-.127.128-.335 0-.463s-.336-.128-.464 0l-.078.077c-.598.598-1.568.598-2.165 0-.598-.598-.598-1.568 0-2.165.598-.6 1.568-.6 2.165 0l.076.075c.128.128.336.128.464 0s.128-.336 0-.464l-.077-.076c-.854-.853-2.24-.853-3.093 0-.854.855-.854 2.24 0 3.095.855.852 2.24.852 3.094-.002z"/>
  </g>
  <g fill="#374856">
    <path d="M150.218 17.42c-12.47 0-22.58 10.11-22.58 22.58s10.11 22.58 22.58 22.58c12.47 0 22.58-10.11 22.58-22.58s-10.11-22.58-22.58-22.58zm0 43.225c-11.402 0-20.645-9.243-20.645-20.645s9.243-20.645 20.645-20.645S170.863 28.598 170.863 40s-9.243 20.645-20.645 20.645z"/>
    <path d="M150.218 10.968c-16.034 0-29.032 12.998-29.032 29.032s12.998 29.032 29.032 29.032S179.25 56.034 179.25 40s-12.998-29.032-29.032-29.032zm0 56.13c-14.965 0-27.097-12.133-27.097-27.098s12.133-27.097 27.098-27.097S177.315 25.035 177.315 40s-12.132 27.097-27.097 27.097z"/>
  </g>
  <circle cx="168.349" cy="22.97" r="9.677" fill="#56D7CD" stroke="#2C2F33" stroke-width="1.2" stroke-miterlimit="10"/>
  <circle cx="127.637" cy="32.648" r="8.387" fill="#56D7CD" stroke="#2C2F33" stroke-width="1.2" stroke-miterlimit="10"/>
  <path fill="#2C2F33" d="M171.51 19.358v1.355h-.902c-.25 0-.452.202-.452.452v.903h1.355v1.355h-1.354v3.16H168.8v-3.16h-.902v-1.355h.903v-1.13c0-.872.71-1.58 1.582-1.58h1.13zm.452-.904h-7.226c-.5 0-.9.404-.9.903l-.004 7.226c0 .5.404.903.903.903h7.226c.5 0 .904-.405.904-.903v-7.226c.002-.498-.403-.903-.902-.903z"/>
  <circle cx="147.798" cy="63.441" r="7.742" fill="#56D7CD" stroke="#2C2F33" stroke-width="1.2" stroke-miterlimit="10"/>
  <path fill="#2C2F33" d="M147.798 59.57c-2.137 0-3.87 1.732-3.87 3.87 0 1.594.975 3.025 2.46 3.605-.035-.307-.065-.776.013-1.11l.455-1.925s-.116-.232-.116-.575c0-.537.312-.94.7-.94.33 0 .49.25.49.546 0 .333-.21.83-.32 1.29-.092.386.194.7.573.7.687 0 1.217-.726 1.217-1.773 0-.927-.666-1.575-1.617-1.575-1.1 0-1.747.826-1.747 1.68 0 .333.127.69.287.883.032.04.036.072.028.11-.028.123-.094.386-.107.44-.017.07-.055.086-.13.052-.482-.225-.785-.932-.785-1.5 0-1.222.887-2.342 2.558-2.342 1.342 0 2.386.956 2.386 2.235 0 1.334-.842 2.408-2.01 2.408-.39 0-.76-.204-.886-.445l-.242.92c-.087.337-.323.76-.48 1.016.362.11.746.172 1.146.172 2.138 0 3.87-1.733 3.87-3.87 0-2.14-1.734-3.872-3.872-3.873zM132.153 29.89c-.34.148-.697.244-1.064.287.384-.226.674-.585.814-1.01-.358.21-.754.362-1.176.444-.353-.368-.842-.576-1.353-.575-1.023 0-1.853.817-1.853 1.825 0 .143.017.282.048.415-1.484-.07-2.87-.762-3.82-1.906-.164.276-.25.593-.25.916 0 .633.326 1.19.823 1.518-.294-.01-.58-.087-.84-.228v.023c0 .883.64 1.62 1.487 1.788-.273.073-.56.084-.836.032.236.724.92 1.252 1.73 1.266-.658.508-1.468.783-2.3.78-.15 0-.297-.008-.442-.025.85.538 1.835.822 2.84.82 3.41 0 5.273-2.78 5.273-5.19 0-.078-.002-.157-.005-.235.36-.258.674-.577.923-.945z"/>
</svg>
