<svg xmlns="http://www.w3.org/2000/svg" viewBox="0 0 24 24"><path d="M20.038 7.552H15.04v-1.24h4.998v1.24zm-8.323 5.09c.322.498.484 1.105.484 1.817 0 .735-.183 1.396-.552 1.98-.235.385-.527.71-.878.974-.395.304-.863.512-1.4.623-.54.11-1.123.168-1.752.168h-5.59V5.795h5.993c1.51.026 2.582.463 3.215 1.323.38.527.567 1.16.567 1.895 0 .76-.19 1.366-.573 1.827-.214.26-.53.494-.946.706.632.23 1.11.594 1.43 1.095zM4.89 10.687h2.627c.54 0 .976-.103 1.312-.308.335-.205.502-.57.502-1.09 0-.578-.222-.96-.666-1.146-.383-.127-.872-.193-1.466-.193H4.89v2.738zm4.694 3.594c0-.645-.263-1.09-.79-1.33-.293-.135-.708-.204-1.24-.21H4.89v3.308h2.623c.54 0 .956-.07 1.257-.218.542-.27.814-.786.814-1.55zm12.308-2.02c.06.407.088.996.077 1.766h-6.472c.036.893.344 1.518.93 1.875.352.224.78.334 1.28.334.528 0 .958-.133 1.29-.408.18-.146.34-.352.477-.61h2.372c-.062.527-.348 1.062-.86 1.605-.796.864-1.91 1.298-3.344 1.298-1.183 0-2.226-.365-3.13-1.094-.903-.732-1.356-1.917-1.356-3.56 0-1.543.407-2.723 1.223-3.544.82-.823 1.876-1.233 3.18-1.233.772 0 1.47.138 2.09.416.62.277 1.13.714 1.534 1.315.364.53.598 1.14.708 1.838zm-2.335.233c-.043-.618-.25-1.085-.62-1.405-.37-.32-.83-.48-1.378-.48-.598 0-1.06.17-1.388.51-.33.336-.535.795-.62 1.375h4.005z"/></svg>
