<svg xmlns="http://www.w3.org/2000/svg" viewBox="0 0 24 24"><path d="M21.874 8.773L21.86 8.7l-.014-.04c-.007-.022-.013-.043-.022-.063-.006-.014-.012-.028-.02-.04-.01-.02-.018-.04-.028-.058l-.025-.04c-.01-.018-.022-.034-.035-.05l-.03-.038c-.012-.016-.027-.03-.04-.046l-.035-.033c-.015-.014-.032-.028-.048-.04-.012-.01-.025-.02-.04-.03-.004-.004-.008-.008-.013-.01l-9.085-6.057c-.287-.19-.66-.19-.947 0L2.392 8.21l-.014.01-.04.03-.047.04-.033.034-.043.047-.03.038-.035.05-.025.04-.03.057-.018.042-.022.062c-.005.013-.01.027-.013.04l-.015.072-.007.037c-.005.036-.008.073-.008.11v6.057c0 .037.003.075.008.11l.007.038.015.07.013.043.022.063c.006.015.012.03.02.043.008.02.017.038.028.057l.024.04c.01.017.022.034.035.05l.03.038.042.047.034.033c.017.014.033.028.05.04l.038.03.014.01 9.084 6.055c.143.096.308.144.473.144s.33-.048.473-.144l9.084-6.056.014-.01.04-.03c.017-.012.033-.025.048-.04.012-.01.023-.02.034-.032l.042-.047.03-.037.035-.05.024-.04.03-.057.018-.042.022-.062c.005-.014.01-.028.013-.042.006-.023.01-.047.015-.07l.007-.038c.004-.037.007-.074.007-.11V8.92c0-.037-.003-.074-.008-.11l-.006-.037zM11.95 13.97l-3.02-2.02 3.02-2.02 3.02 2.02-3.02 2.02zm-.854-5.524l-3.703 2.477-2.99-2 6.693-4.46v3.983zm-5.24 3.504L3.72 13.38v-2.86l2.137 1.43zm1.537 1.027l3.703 2.476v3.984l-6.692-4.46 2.99-2zm5.41 2.477l3.703-2.476 2.99 2-6.693 4.46v-3.984zm5.24-3.504l2.137-1.43v2.86l-2.137-1.43zm-1.536-1.028l-3.703-2.476V4.462l6.692 4.46-2.99 2z"/></svg>
