<svg xmlns="http://www.w3.org/2000/svg" viewBox="0 0 24 24"><path d="M9.2 14.935c-.897 0-1.626-.73-1.626-1.625 0-.896.73-1.624 1.625-1.624s1.623.73 1.623 1.624c0 .896-.728 1.625-1.624 1.625zm11.756-1.133c.024.186.037.37.037.547 0 3.377-4.042 6.126-9.01 6.126s-9.008-2.748-9.008-6.127c0-.185.014-.377.04-.57-.636-.47-1.012-1.207-1.012-2 0-1.373 1.117-2.49 2.49-2.49.537 0 1.058.174 1.486.494 1.543-.94 3.513-1.487 5.583-1.552l1.587-4.51 3.803.91c.36-.68 1.06-1.108 1.837-1.108 1.147 0 2.08.933 2.08 2.08 0 1.146-.934 2.078-2.08 2.078-1.078 0-1.97-.827-2.07-1.88l-2.802-.67L12.82 8.25c1.923.12 3.747.663 5.187 1.544.43-.327.957-.505 1.5-.505 1.374 0 2.49 1.116 2.49 2.49.002.81-.385 1.554-1.04 2.022zm-17.76-2.02c0 .248.073.49.206.698.328-.696.842-1.352 1.51-1.927-.134-.046-.276-.07-.42-.07-.715 0-1.297.582-1.297 1.298zm16.603 2.567c0-2.72-3.507-4.935-7.817-4.935s-7.816 2.213-7.816 4.934 3.506 4.932 7.816 4.932c4.31 0 7.816-2.213 7.816-4.933zm-.737-3.79c.672.583 1.188 1.246 1.514 1.95.147-.215.227-.468.227-.73 0-.716-.582-1.298-1.297-1.298-.152 0-.302.028-.444.08zm-1.16-4.957c0 .488.396.886.885.886.49 0 .886-.398.886-.887 0-.49-.397-.886-.886-.886-.488 0-.886.398-.886.886zm-2.92 10.603c-.162 0-.313.064-.422.174-.03.03-.81.767-2.592.767-1.76 0-2.468-.735-2.47-.737-.113-.13-.277-.205-.45-.205-.142 0-.28.05-.387.143-.12.104-.194.248-.206.407-.012.16.038.314.142.434.027.03.288.326.84.607.705.36 1.558.543 2.534.543.97 0 1.833-.18 2.567-.534.568-.274.85-.56.882-.593.223-.235.216-.61-.017-.84-.116-.107-.263-.167-.42-.167zm-.02-4.52c-.895 0-1.624.73-1.624 1.624 0 .896.728 1.625 1.624 1.625.896 0 1.624-.73 1.624-1.625 0-.896-.728-1.624-1.624-1.624z"/></svg>
