<svg xmlns="http://www.w3.org/2000/svg" viewBox="0 0 24 24"><path d="M12 3.81c2.667 0 2.983.01 4.036.06.974.043 1.503.206 1.855.343.467.18.8.398 1.15.747.35.35.566.682.747 1.15.137.35.3.88.344 1.854.05 1.053.06 1.37.06 4.036s-.01 2.983-.06 4.036c-.043.974-.206 1.503-.343 1.855-.18.467-.398.8-.747 1.15-.35.35-.682.566-1.15.747-.35.137-.88.3-1.854.344-1.053.05-1.37.06-4.036.06s-2.983-.01-4.036-.06c-.974-.043-1.503-.206-1.855-.343-.467-.18-.8-.398-1.15-.747-.35-.35-.566-.682-.747-1.15-.137-.35-.3-.88-.344-1.854-.05-1.053-.06-1.37-.06-4.036s.01-2.983.06-4.036c.044-.974.206-1.503.343-1.855.18-.467.398-.8.747-1.15.35-.35.682-.566 1.15-.747.35-.137.88-.3 1.854-.344 1.053-.05 1.37-.06 4.036-.06m0-1.8c-2.713 0-3.053.012-4.118.06-1.064.05-1.79.22-2.425.465-.657.256-1.214.597-1.77 1.153-.555.555-.896 1.112-1.152 1.77-.246.634-.415 1.36-.464 2.424-.047 1.065-.06 1.405-.06 4.118s.012 3.053.06 4.118c.05 1.063.218 1.79.465 2.425.255.657.597 1.214 1.152 1.77.555.554 1.112.896 1.77 1.15.634.248 1.36.417 2.424.465 1.066.05 1.407.06 4.12.06s3.052-.01 4.117-.06c1.063-.05 1.79-.217 2.425-.464.657-.255 1.214-.597 1.77-1.152.554-.555.896-1.112 1.15-1.77.248-.634.417-1.36.465-2.424.05-1.065.06-1.406.06-4.118s-.01-3.053-.06-4.118c-.05-1.063-.217-1.79-.464-2.425-.255-.657-.597-1.214-1.152-1.77-.554-.554-1.11-.896-1.768-1.15-.635-.248-1.362-.417-2.425-.465-1.064-.05-1.404-.06-4.117-.06zm0 4.86C9.167 6.87 6.87 9.17 6.87 12s2.297 5.13 5.13 5.13 5.13-2.298 5.13-5.13S14.832 6.87 12 6.87zm0 8.46c-1.84 0-3.33-1.49-3.33-3.33S10.16 8.67 12 8.67s3.33 1.49 3.33 3.33-1.49 3.33-3.33 3.33zm5.332-9.86c-.662 0-1.2.536-1.2 1.198s.538 1.2 1.2 1.2c.662 0 1.2-.538 1.2-1.2s-.538-1.2-1.2-1.2z"/></svg>
