<svg xmlns="http://www.w3.org/2000/svg" viewBox="0 0 20 10"><path fill-rule="evenodd" d="M7.97 3.715c-.382 0-.626-.31-.553-.692.064-.374.426-.683.8-.683.373 0 .627.31.553.683-.064.382-.425.692-.8.692zm5.112 3.67c-.086.077-.18.12-.284.12-.262 0-.374-.133-.374-.417 0-.443.443-1.565.443-2.072 0-.675-.365-1.07-1.113-1.07-.473 0-.963.305-1.17.572 0 0 .065-.22.087-.3.022-.09-.025-.177-.14-.177h-.732c-.155 0-.198.083-.224.173-.008.04-.27 1.07-.524 2.06-.172.674-.593 1.24-1.04 1.24-.232 0-.335-.145-.335-.39 0-.21.138-.735.3-1.384.203-.792.38-1.44.397-1.518.026-.095-.022-.18-.146-.18H7.49c-.132 0-.18.07-.21.168 0 0-.206.778-.425 1.646-.16.63-.337 1.276-.337 1.577 0 .537.245.94.91.94.517 0 .925-.257 1.235-.588-.043.18-.073.293-.077.305-.026.104.004.194.13.194h.75c.13 0 .182-.056.207-.168.026-.107.59-2.312.59-2.312.15-.59.515-.98 1.03-.98.246 0 .46.16.435.473-.026.348-.447 1.59-.447 2.132 0 .412.156.95.934.95.533 0 .924-.255 1.208-.586l-.34-.41zM3.634.65C1.254.65.05 2.352.05 3.77c0 .86.326 1.626 1.026 1.91.116.047.22.004.25-.125.025-.086.08-.31.102-.4.035-.125.023-.168-.072-.28-.202-.236-.33-.546-.33-.98 0-1.264.95-2.394 2.47-2.394 1.346 0 2.086.822 2.086 1.918 0 1.44-.64 2.657-1.59 2.657-.524 0-.916-.434-.79-.963.148-.632.44-1.316.44-1.77 0-.414-.218-.753-.674-.753C2.43 2.59 2 3.143 2 3.882c0 .473.16.79.16.79l-.645 2.72c-.193.81-.03 1.802-.013 1.9.004.035.03.053.06.057h.004c.02-.004.04-.013.052-.03.052-.06.688-.847.907-1.634.06-.223.352-1.37.352-1.37.173.33.684.623 1.226.623 1.612 0 2.704-1.467 2.704-3.427C6.807 2.03 5.547.65 3.634.65zM16.09 3.715c.37 0 .732-.31.792-.688.073-.374-.18-.683-.55-.683-.374 0-.73.31-.795.683-.074.378.17.688.554.688zm3.237 3.33c-.176.263-.417.457-.662.457-.232 0-.357-.146-.357-.39 0-.212.146-.728.31-1.372l.23-.91h.766c.112 0 .18-.048.206-.156.04-.15.103-.417.125-.49 0-.017.004-.03.004-.043v-.004c0-.073-.057-.12-.143-.12h-.757l.357-1.414c.034-.142-.086-.224-.206-.198l-.69.138c-.11.02-.194.082-.233.236l-.31 1.238h-.602c-.116 0-.18.043-.206.15l-.126.494c-.026.094.03.168.138.168h.593c-.004.017-.215.812-.382 1.526-.082.34-.567 1.143-1.006 1.143-.228 0-.585-.146-.585-.387 0-.21.138-.735.3-1.38.2-.787.375-1.436.392-1.51.026-.098-.02-.184-.146-.184h-.73c-.134 0-.182.073-.207.168 0 0-.205.778-.425 1.642-.16.628-.335 1.268-.335 1.57 0 .532.73.94 1.393.94.53 0 .903-.245 1.182-.572.107.344.378.58.885.58.838 0 1.34-.5 1.638-.993l-.41-.324z"/></svg>
