<svg xmlns="http://www.w3.org/2000/svg" viewBox="0 0 24 24"><path d="M21.813 7.996s-.196-1.38-.796-1.988c-.76-.798-1.615-.802-2.006-.848-2.8-.203-7.005-.203-7.005-.203h-.01s-4.202 0-7.005.203c-.392.047-1.245.05-2.007.848-.6.608-.796 1.988-.796 1.988s-.2 1.62-.2 3.24v1.52c0 1.62.2 3.24.2 3.24s.195 1.38.796 1.99c.762.797 1.762.77 2.208.855 1.603.155 6.81.202 6.81.202s4.208-.006 7.01-.21c.39-.046 1.245-.05 2.006-.847.6-.608.796-1.988.796-1.988s.2-1.62.2-3.24v-1.52c0-1.62-.2-3.24-.2-3.24zm-11.88 6.602V8.97l5.41 2.824-5.41 2.804z"/></svg>
